<svg id="Layer_1" data-name="Layer 1" xmlns="http://www.w3.org/2000/svg" viewBox="0 0 223.994 57.485">
  <title>Vector Smart Object</title>
  <g>
    <g>
      <polygon points="77.652 0.492 61.887 0.492 61.887 6.21 77.652 6.21 77.652 0.492 77.652 0.492" style="fill: #717071"/>
      <polygon points="80.332 0.492 80.332 6.21 95.623 6.21 95.623 13.722 80.482 13.722 80.482 38.996 101.318 38.996 101.318 23.194 95.623 23.194 95.623 33.357 86.221 33.357 86.221 19.615 101.318 19.562 101.318 19.5 101.318 0.492 80.332 0.492 80.332 0.492" style="fill: #717071"/>
      <polygon points="61.797 14.427 67.982 14.427 61.797 38.996 77.736 38.996 77.736 33.314 68.769 33.314 73.683 14.427 77.736 14.427 77.736 8.709 61.797 8.709 61.797 14.427 61.797 14.427" style="fill: #717071"/>
    </g>
    <g>
      <polygon points="0.292 38.996 6.134 38.996 6.134 17.766 0.292 17.766 0.292 38.996 0.292 38.996" style="fill: #717071"/>
      <polygon points="0 6.157 6.291 6.157 6.291 0.492 0 0.492 0 6.157 0 6.157" style="fill: #717071"/>
      <polygon points="0 15.116 6.291 15.116 6.291 9.472 0 9.472 0 15.116 0 15.116" style="fill: #717071"/>
      <path d="M180.928,148.675v.215h-.058v19.076h5.689V154.439h6.955v2.921h-3.98v5.663h13V157.36h-4.021v-2.921h6.82v13.5h5.846V148.675Z" transform="translate(-171.678 -129.012)" style="fill: #717071"/>
      <path d="M184.693,145.872h22.722V137.5h3.7v-5.667h-3.7V129.5H201.65v2.332H190.457V129.5h-5.764v2.332h-3.765V137.5h3.765v8.369ZM201.65,137.5v2.643H190.457V137.5Z" transform="translate(-171.678 -129.012)" style="fill: #717071"/>
    </g>
    <g>
      <path d="M356.738,149.34v18.668h17.348V149.34Zm5.428,12.311v-6.3h6.512v6.809h-6.512v-.511Z" transform="translate(-171.678 -129.012)" style="fill: #717071"/>
      <path d="M378.309,149.34v18.668h17.363V149.34Zm5.445,12.311v-6.3h6.471v6.809h-6.471v-.511Z" transform="translate(-171.678 -129.012)" style="fill: #717071"/>
      <path d="M361.912,129.052v16.3l28.708.039v-16.38l-28.708.04ZM367.926,139v-4.356H384.7v4.911H367.926V139Z" transform="translate(-171.678 -129.012)" style="fill: #717071"/>
    </g>
    <g>
      <path d="M296.2,129.338v5.894h6.233v3.95H296.2v5.8h6.233v3.477H296.2v19.548h18.2V148.46h-6.154v-3.477H314.4v-5.8h-6.154v-3.95H314.4v-5.894Zm5.824,32.378v-7.441h6.522v7.948h-6.522v-.507Z" transform="translate(-171.678 -129.012)" style="fill: #717071"/>
      <path d="M334.637,136.934V129.3h-5.86v7.637H327v5.8h1.776v5.746h-1.736v5.795h1.736v7.949H323.91V129.315h-5.875v38.652h16.6V142.733h2.892v-5.8Z" transform="translate(-171.678 -129.012)" style="fill: #717071"/>
    </g>
    <g>
      <path d="M315.828,178.836l-1.746,1.1.04.181a4.808,4.808,0,0,1,.1,1.011,4.027,4.027,0,0,1-.358,1.8,2.738,2.738,0,0,1-1.055,1.126,3.688,3.688,0,0,1-1.254.481,9.209,9.209,0,0,1-1.667.133h-.859v-1.559l-2,1.257v1.953h2.814a12.974,12.974,0,0,0,2.256-.163,5.812,5.812,0,0,0,1.792-.659,4.767,4.767,0,0,0,1.742-1.789,5.136,5.136,0,0,0,.646-2.56,5.608,5.608,0,0,0-.341-2.01Z" transform="translate(-171.678 -129.012)" style="fill: #717071"/>
      <path d="M309.032,177.6h.859a8.112,8.112,0,0,1,1.61.134,4.408,4.408,0,0,1,1.185.43,2.789,2.789,0,0,1,.954.834l.144.2,1.652-1.039-.182-.23a4.806,4.806,0,0,0-1.346-1.166,5.8,5.8,0,0,0-1.584-.6,11.423,11.423,0,0,0-2.509-.215h-2.782v7.494l2-1.257Z" transform="translate(-171.678 -129.012)" style="fill: #717071"/>
      <polygon points="149.714 57.307 157.158 57.307 157.158 55.616 151.713 55.616 151.713 52.49 156.787 52.49 156.787 50.8 151.713 50.8 151.713 48.632 157.158 48.632 157.158 46.942 149.714 46.942 149.714 57.307" style="fill: #717071"/>
      <path d="M340.072,180.515h0c-.3-.08-.679-.169-1.136-.265s-.827-.18-1.136-.252a2,2,0,0,1-.954-.474,1.077,1.077,0,0,1-.293-.81,1.037,1.037,0,0,1,.514-.9,2.673,2.673,0,0,1,1.509-.381,4.515,4.515,0,0,1,1.637.3,4.739,4.739,0,0,1,1.28.709l.073.059h.471v-2l-.16-.068a8.039,8.039,0,0,0-1.588-.487,9.377,9.377,0,0,0-1.809-.169,4.521,4.521,0,0,0-2.835.864,2.708,2.708,0,0,0-1.151,2.214,2.773,2.773,0,0,0,.212,1.118,2.55,2.55,0,0,0,.591.851,3.175,3.175,0,0,0,.876.583,5.67,5.67,0,0,0,1.075.355c.428.1.785.175,1.068.233s.586.126.925.215a1.764,1.764,0,0,1,.907.466,1.135,1.135,0,0,1,.26.784,1.149,1.149,0,0,1-.515.98,2.9,2.9,0,0,1-1.687.4,4.986,4.986,0,0,1-1.686-.318,5.192,5.192,0,0,1-1.571-.9l-.073-.061h-.464v2.075l.159.07a11.479,11.479,0,0,0,1.624.558,8.5,8.5,0,0,0,2.115.23,5.516,5.516,0,0,0,1.768-.246,4.236,4.236,0,0,0,1.288-.706,2.963,2.963,0,0,0,.812-1.043,2.925,2.925,0,0,0,.289-1.249,2.581,2.581,0,0,0-.59-1.716A3.479,3.479,0,0,0,340.072,180.515Z" transform="translate(-171.678 -129.012)" style="fill: #717071"/>
      <path d="M352.709,180.515h0c-.3-.08-.68-.169-1.136-.265s-.827-.18-1.137-.252a2,2,0,0,1-.954-.474,1.081,1.081,0,0,1-.293-.81,1.036,1.036,0,0,1,.515-.9,2.673,2.673,0,0,1,1.509-.381,4.515,4.515,0,0,1,1.637.3,4.8,4.8,0,0,1,1.28.709l.073.059h.469v-2l-.159-.068a8.1,8.1,0,0,0-1.587-.487,9.392,9.392,0,0,0-1.809-.169,4.525,4.525,0,0,0-2.837.864,2.712,2.712,0,0,0-1.149,2.214,2.773,2.773,0,0,0,.212,1.118,2.536,2.536,0,0,0,.591.851,3.146,3.146,0,0,0,.876.583,5.647,5.647,0,0,0,1.075.355c.427.1.785.175,1.068.233s.586.126.925.215a1.746,1.746,0,0,1,.905.467,1.122,1.122,0,0,1,.262.783,1.148,1.148,0,0,1-.516.98,2.892,2.892,0,0,1-1.686.4,4.991,4.991,0,0,1-1.687-.318,5.2,5.2,0,0,1-1.57-.9l-.073-.061h-.464v2.075l.159.07a11.479,11.479,0,0,0,1.624.558,8.5,8.5,0,0,0,2.113.23,5.529,5.529,0,0,0,1.77-.246,4.265,4.265,0,0,0,1.289-.706,2.971,2.971,0,0,0,.811-1.043,2.924,2.924,0,0,0,.288-1.249,2.59,2.59,0,0,0-.588-1.716A3.49,3.49,0,0,0,352.709,180.515Z" transform="translate(-171.678 -129.012)" style="fill: #717071"/>
      <polygon points="188.729 57.307 196.174 57.307 196.174 55.616 190.727 55.616 190.727 52.49 195.803 52.49 195.803 50.8 190.727 50.8 190.727 48.632 196.174 48.632 196.174 46.942 188.729 46.942 188.729 57.307" style="fill: #717071"/>
      <path d="M380.75,180.866a2.967,2.967,0,0,0,.679-1.98,2.6,2.6,0,0,0-.38-1.438,2.911,2.911,0,0,0-1.006-.938,3.651,3.651,0,0,0-1.317-.461,11.544,11.544,0,0,0-1.632-.095h-3.117v10.364h2v-3.911h1.3l3.506,3.911h2.629l-4.079-4.436A3.737,3.737,0,0,0,380.75,180.866Zm-1.386-1.881a2.2,2.2,0,0,1-.134.8,1.422,1.422,0,0,1-.4.56,1.546,1.546,0,0,1-.739.349,5.636,5.636,0,0,1-1.085.094h-1.029V177.6h1.192a5.459,5.459,0,0,1,.984.074,1.946,1.946,0,0,1,.643.226,1.1,1.1,0,0,1,.428.439A1.422,1.422,0,0,1,379.364,178.985Z" transform="translate(-171.678 -129.012)" style="fill: #717071"/>
      <polygon points="214.274 46.942 214.274 48.632 217.99 48.632 217.99 57.307 219.988 57.307 219.988 48.632 223.703 48.632 223.703 46.942 214.274 46.942" style="fill: #717071"/>
      <polygon points="6.533 50.815 1.992 50.815 1.992 47.013 0 47.013 0 57.235 1.992 57.235 1.992 52.489 6.533 52.489 6.533 57.235 8.525 57.235 8.525 47.013 6.533 47.013 6.533 50.815" style="fill: #717071"/>
      <polygon points="34.008 53.969 29.992 47.013 27.496 47.013 27.496 57.235 29.393 57.235 29.393 49.589 33.846 57.235 35.904 57.235 35.904 47.013 34.008 47.013 34.008 53.969" style="fill: #717071"/>
      <polygon points="41.273 57.235 48.691 57.235 48.691 55.562 43.266 55.562 43.266 52.489 48.32 52.489 48.32 50.815 43.266 50.815 43.266 48.687 48.691 48.687 48.691 47.013 41.273 47.013 41.273 57.235" style="fill: #717071"/>
      <polygon points="56.975 51.081 54.271 47.013 52.008 47.013 55.961 52.899 55.961 57.235 57.953 57.235 57.953 52.763 61.914 47.013 59.718 47.013 56.975 51.081" style="fill: #717071"/>
      <polygon points="70.21 52.086 67.624 47.013 65.199 47.013 65.199 57.235 67.097 57.235 67.097 49.733 69.519 54.566 70.731 54.566 73.178 49.726 73.178 57.235 75.17 57.235 75.17 47.013 72.707 47.013 70.21 52.086" style="fill: #717071"/>
      <polygon points="115.033 53.969 111.017 47.013 108.521 47.013 108.521 57.235 110.418 57.235 110.418 49.589 114.871 57.235 116.93 57.235 116.93 47.013 115.033 47.013 115.033 53.969" style="fill: #717071"/>
      <path d="M194.647,178.748l-1.77,1.1.033.178a5.969,5.969,0,0,1,.1,1.113,4.009,4.009,0,0,1-.839,2.744,3.181,3.181,0,0,1-4.487,0,2.781,2.781,0,0,1-.253-.338l-.142-.218-1.662,1.034.17.232a4.344,4.344,0,0,0,.386.456,4.414,4.414,0,0,0,1.634,1.053,6.518,6.518,0,0,0,4.173.01,4.432,4.432,0,0,0,2.716-2.755,7.084,7.084,0,0,0,.046-4.29Z" transform="translate(-171.678 -129.012)" style="fill: #717071"/>
      <path d="M186.972,182.42a5.858,5.858,0,0,1-.13-1.28,5.444,5.444,0,0,1,.221-1.616,3.107,3.107,0,0,1,.615-1.146,2.581,2.581,0,0,1,.957-.689,3.792,3.792,0,0,1,2.582.006,2.5,2.5,0,0,1,.957.682,2.71,2.71,0,0,1,.332.481l.135.242,1.669-1.037-.152-.227a4.3,4.3,0,0,0-.5-.62,4.543,4.543,0,0,0-1.619-1.03,6.442,6.442,0,0,0-4.221-.01,4.428,4.428,0,0,0-1.635,1.044,4.877,4.877,0,0,0-1.037,1.677,7.124,7.124,0,0,0,0,4.475l.1.326,1.762-1.095Z" transform="translate(-171.678 -129.012)" style="fill: #717071"/>
      <path d="M253.105,182.247a6.138,6.138,0,0,1-.1-1.107,5.5,5.5,0,0,1,.22-1.615,3.137,3.137,0,0,1,.616-1.146,2.593,2.593,0,0,1,.957-.69,3.792,3.792,0,0,1,2.584.006,2.515,2.515,0,0,1,.955.682,2.6,2.6,0,0,1,.25.345l.138.223,1.66-1.032-.169-.228a4.319,4.319,0,0,0-.391-.469,4.549,4.549,0,0,0-1.619-1.03,5.884,5.884,0,0,0-2.121-.363,5.972,5.972,0,0,0-2.1.353,4.444,4.444,0,0,0-1.635,1.044,4.879,4.879,0,0,0-1.037,1.677,6.479,6.479,0,0,0-.36,2.243,6.632,6.632,0,0,0,.308,2.066l.1.32,1.772-1.1Z" transform="translate(-171.678 -129.012)" style="fill: #717071"/>
      <path d="M260.879,178.505,259,179.672l.041.183a5.788,5.788,0,0,1,.134,1.285,4.01,4.01,0,0,1-.84,2.744,3.181,3.181,0,0,1-4.487,0,2.5,2.5,0,0,1-.338-.473l-.136-.236-1.672,1.039.154.228a4.28,4.28,0,0,0,.49.608,4.434,4.434,0,0,0,1.635,1.053,6.045,6.045,0,0,0,2.1.348,6.125,6.125,0,0,0,2.069-.338,4.46,4.46,0,0,0,1.67-1.061,4.524,4.524,0,0,0,1.046-1.694,7.1,7.1,0,0,0,.006-4.416Z" transform="translate(-171.678 -129.012)" style="fill: #717071"/>
      <path d="M275.043,178.772l-.143-.351-1.723,1.073.051.19a5.542,5.542,0,0,1,.178,1.456,4,4,0,0,1-.839,2.743,3.181,3.181,0,0,1-4.487,0,2.8,2.8,0,0,1-.414-.62l-.13-.259-1.694,1.053.136.224a4.384,4.384,0,0,0,2.236,1.82,6.053,6.053,0,0,0,2.1.348,6.125,6.125,0,0,0,2.069-.338,4.444,4.444,0,0,0,1.67-1.061,4.522,4.522,0,0,0,1.046-1.694,7.1,7.1,0,0,0-.007-4.46C275.08,178.853,275.062,178.811,275.043,178.772Z" transform="translate(-171.678 -129.012)" style="fill: #717071"/>
      <path d="M267.3,182.064a6.371,6.371,0,0,1-.065-.924,5.432,5.432,0,0,1,.221-1.615,3.1,3.1,0,0,1,.615-1.146,2.613,2.613,0,0,1,.957-.69,3.8,3.8,0,0,1,2.584.006,2.518,2.518,0,0,1,.955.682,1.961,1.961,0,0,1,.158.2l.145.205,1.648-1.026-.188-.232c-.088-.108-.179-.214-.275-.313a4.543,4.543,0,0,0-1.619-1.03,5.884,5.884,0,0,0-2.121-.363,5.988,5.988,0,0,0-2.1.353,4.428,4.428,0,0,0-1.634,1.044,4.874,4.874,0,0,0-1.038,1.677,6.455,6.455,0,0,0-.36,2.243,6.833,6.833,0,0,0,.25,1.879l.1.335,1.8-1.119Z" transform="translate(-171.678 -129.012)" style="fill: #717071"/>
    </g>
  </g>
</svg>
