<?xml version="1.0" standalone="no"?><!DOCTYPE svg PUBLIC "-//W3C//DTD SVG 1.1//EN" "http://www.w3.org/Graphics/SVG/1.1/DTD/svg11.dtd"><svg t="1647251525454" class="icon" viewBox="0 0 1024 1024" version="1.1" xmlns="http://www.w3.org/2000/svg" p-id="1484" xmlns:xlink="http://www.w3.org/1999/xlink" width="200" height="200"><defs><style type="text/css"></style></defs><path d="M539.306667 897.706667c-23.893333 0-40.96-23.893333-58.026667-44.373334-10.24-13.653333-20.48-27.306667-27.306667-30.72-6.826667-3.413333-27.306667 6.826667-40.96 10.24-23.893333 10.24-51.2 20.48-71.68 10.24-20.48-13.653333-23.893333-40.96-27.306666-68.266666 0-13.653333-3.413333-34.133333-10.24-40.96s-23.893333-6.826667-40.96-10.24c-27.306667-3.413333-54.613333-6.826667-68.266667-27.306667-13.653333-20.48 0-47.786667 10.24-71.68 6.826667-13.653333 13.653333-30.72 10.24-40.96-3.413333-6.826667-17.066667-17.066667-30.72-27.306667-20.48-17.066667-44.373333-34.133333-44.373333-58.026666s23.893333-40.96 44.373333-58.026667c13.653333-10.24 27.306667-20.48 30.72-27.306667 3.413333-6.826667-6.826667-27.306667-10.24-40.96-10.24-23.893333-20.48-51.2-10.24-71.68 13.653333-20.48 40.96-23.893333 68.266667-27.306666 13.653333 0 34.133333-3.413333 40.96-10.24s6.826667-23.893333 10.24-40.96c3.413333-27.306667 6.826667-54.613333 27.306666-68.266667 20.48-13.653333 47.786667 0 71.68 10.24 13.653333 6.826667 30.72 13.653333 40.96 10.24 6.826667-3.413333 17.066667-17.066667 27.306667-30.72 17.066667-20.48 34.133333-44.373333 58.026667-44.373333s40.96 23.893333 58.026666 44.373333c10.24 13.653333 20.48 27.306667 27.306667 30.72 6.826667 3.413333 27.306667-6.826667 40.96-10.24 23.893333-10.24 51.2-20.48 71.68-10.24 20.48 13.653333 23.893333 40.96 27.306667 68.266667 0 13.653333 3.413333 34.133333 10.24 40.96s23.893333 6.826667 40.96 10.24c27.306667 3.413333 54.613333 6.826667 68.266666 27.306666 13.653333 20.48 0 47.786667-10.24 71.68-6.826667 13.653333-13.653333 30.72-10.24 40.96 3.413333 6.826667 17.066667 17.066667 30.72 27.306667 20.48 17.066667 44.373333 34.133333 44.373334 58.026667s-23.893333 40.96-44.373334 58.026666c-13.653333 10.24-27.306667 20.48-30.72 27.306667-3.413333 6.826667 6.826667 27.306667 10.24 40.96 10.24 23.893333 20.48 51.2 10.24 71.68-13.653333 20.48-40.96 23.893333-68.266666 27.306667-13.653333 0-34.133333 3.413333-40.96 10.24-6.826667 6.826667-6.826667 23.893333-10.24 40.96-3.413333 27.306667-6.826667 54.613333-27.306667 68.266666-20.48 13.653333-47.786667 0-71.68-10.24-13.653333-6.826667-30.72-13.653333-40.96-10.24-6.826667 3.413333-17.066667 17.066667-27.306667 30.72-17.066667 23.893333-34.133333 44.373333-58.026666 44.373334z m-88.746667-105.813334h10.24c20.48 3.413333 34.133333 23.893333 44.373333 40.96 10.24 13.653333 23.893333 30.72 30.72 30.72 6.826667 0 20.48-17.066667 30.72-30.72 13.653333-17.066667 27.306667-37.546667 44.373334-40.96 20.48-6.826667 40.96 3.413333 61.44 13.653334 13.653333 6.826667 34.133333 13.653333 40.96 10.24 6.826667-3.413333 10.24-27.306667 10.24-40.96 3.413333-23.893333 6.826667-47.786667 20.48-61.44s37.546667-17.066667 61.44-20.48c13.653333 0 37.546667-3.413333 40.96-10.24 3.413333-6.826667-6.826667-27.306667-10.24-40.96-10.24-20.48-17.066667-44.373333-13.653334-61.44 3.413333-20.48 23.893333-34.133333 40.96-44.373334 13.653333-10.24 30.72-23.893333 30.72-30.72s-17.066667-20.48-30.72-30.72c-17.066667-13.653333-37.546667-27.306667-40.96-44.373333-6.826667-20.48 3.413333-40.96 13.653334-61.44 6.826667-13.653333 13.653333-34.133333 10.24-40.96-3.413333-6.826667-27.306667-10.24-40.96-10.24-23.893333-3.413333-47.786667-6.826667-61.44-20.48-13.653333-13.653333-17.066667-37.546667-20.48-61.44 0-13.653333-3.413333-37.546667-10.24-40.96-6.826667-3.413333-27.306667 6.826667-40.96 10.24-20.48 10.24-44.373333 17.066667-61.44 13.653333-20.48-3.413333-34.133333-23.893333-44.373334-40.96-10.24-13.653333-23.893333-30.72-30.72-30.72-6.826667 0-20.48 17.066667-30.72 30.72-13.653333 17.066667-27.306667 37.546667-44.373333 40.96-20.48 6.826667-40.96-3.413333-61.44-13.653333-13.653333-6.826667-34.133333-13.653333-40.96-10.24-6.826667 3.413333-10.24 27.306667-10.24 40.96-3.413333 23.893333-6.826667 47.786667-20.48 61.44-13.653333 13.653333-34.133333 17.066667-58.026667 20.48-13.653333 0-37.546667 3.413333-40.96 10.24-3.413333 6.826667 3.413333 27.306667 10.24 40.96 10.24 20.48 17.066667 44.373333 13.653334 61.44-3.413333 20.48-23.893333 34.133333-40.96 44.373333-13.653333 10.24-30.72 23.893333-30.72 30.72s17.066667 20.48 30.72 30.72c17.066667 13.653333 37.546667 27.306667 40.96 44.373334 6.826667 20.48-3.413333 40.96-13.653334 61.44-6.826667 13.653333-13.653333 34.133333-10.24 40.96 3.413333 6.826667 27.306667 10.24 40.96 10.24 23.893333 3.413333 47.786667 6.826667 61.44 20.48s17.066667 37.546667 20.48 61.44c0 13.653333 3.413333 37.546667 10.24 40.96 6.826667 3.413333 27.306667-6.826667 40.96-10.24 13.653333-6.826667 30.72-13.653333 47.786667-13.653334z" fill="#e98f36" p-id="1485"></path><path d="M453.973333 624.64l-102.4-136.533333v85.333333h-34.133333v-187.733333l102.4 136.533333v-85.333333h34.133333zM593.92 590.506667h-85.333333v-170.666667h85.333333v34.133333h-51.2v102.4h51.2z" fill="#e98f36" p-id="1486"></path><path d="M525.653333 488.106667h68.266667v34.133333h-68.266667zM747.52 634.88l-37.546667-109.226667-37.546666 109.226667-47.786667-191.146667 34.133333-10.24 20.48 81.92 30.72-95.573333 30.72 95.573333 20.48-81.92 34.133334 10.24z" fill="#e98f36" p-id="1487"></path></svg>